<?xml version="1.0" encoding="utf-8"?>
<!-- Generator: Adobe Illustrator 27.8.1, SVG Export Plug-In . SVG Version: 6.00 Build 0)  -->
<svg version="1.1" id="Layer_1" xmlns="http://www.w3.org/2000/svg" xmlns:xlink="http://www.w3.org/1999/xlink" x="0px" y="0px"
	 viewBox="0 0 24 24" style="enable-background:new 0 0 24 24;" xml:space="preserve">
<style type="text/css">
	.st0{fill-rule:evenodd;clip-rule:evenodd;fill:#04705B;}
</style>
<path class="st0" d="M8.7,18.5c-1-0.5-1.9-1.3-2.5-2.4c-0.9-1.5-1.2-3.5,0-5.6c1.1-2,2.7-3.1,4.2-4.1c0.1-0.1,0.2-0.1,0.3-0.2
	c1.5-1,3-2,4.5-3.8c0.1-0.2,0.4-0.4,0.7-0.4c0.3-0.1,0.6,0,0.8,0.1c0.4,0.2,0.6,0.5,0.8,0.8c0.4,0.6,0.9,1.5,1.4,2.8
	c0.5,1.3,1.4,4,1.4,6.7c0,1.4-0.3,2.8-1.1,4c-0.8,1.2-2.1,2.2-3.9,2.6c-0.1,0-0.1,0-0.2,0c-0.2,0-0.9,0.2-1.7,0.2
	c-0.6,0-1.4,0-2.1-0.1c-0.1,0.1-0.1,0.1-0.2,0.2c-1.5,1.3-3.3,2-5.8,2.7c-0.5,0.2-1.1-0.1-1.2-0.7c-0.2-0.5,0.2-1.1,0.7-1.2
	C6.5,19.5,7.7,19.1,8.7,18.5z M11.8,7.8c1.3-0.9,2.8-1.9,4.3-3.5c0.2,0.4,0.6,1.1,0.9,2c0.5,1.2,1.3,3.7,1.2,6
	c0,1.1-0.3,2.1-0.8,2.9C17,16,16.2,16.7,14.8,17c0,0-0.1,0-0.1,0c-0.2,0-0.8,0.1-1.5,0.2c-0.1,0-0.3,0-0.4,0c0.7-1,1.3-2.3,2-3.8
	c0.2-0.5,0-1.1-0.5-1.3s-1.1,0-1.3,0.5c-1,2.2-1.8,3.6-2.6,4.5c-0.1,0-0.1-0.1-0.2-0.1c-0.7-0.2-1.8-0.9-2.4-1.9
	c-0.6-1-0.8-2.2,0-3.6C8.7,10,9.9,9.1,11.5,8C11.6,7.9,11.7,7.9,11.8,7.8z"/>
</svg>
